<?xml version="1.0" encoding="UTF-8" standalone="no"?>
<svg
   xmlns:dc="http://purl.org/dc/elements/1.1/"
   xmlns:cc="http://creativecommons.org/ns#"
   xmlns:rdf="http://www.w3.org/1999/02/22-rdf-syntax-ns#"
   xmlns:svg="http://www.w3.org/2000/svg"
   xmlns="http://www.w3.org/2000/svg"
   id="svg5088"
   version="1.1"
   viewBox="0 0 19.859354 21.891212"
   height="21.891212mm"
   width="19.859354mm">
  <defs
     id="defs5082">
    <clipPath
       id="clipPath26"
       clipPathUnits="userSpaceOnUse">
      <path
         id="path24"
         d="m 46.87,357.72 h 57.62 v -61.3 H 46.87 Z" />
    </clipPath>
    <clipPath
       id="clipPath68"
       clipPathUnits="userSpaceOnUse">
      <path
         id="path66"
         d="m 134.76,353.97 h 53.44 v -53.8 h -53.44 z" />
    </clipPath>
    <clipPath
       id="clipPath92"
       clipPathUnits="userSpaceOnUse">
      <path
         id="path90"
         d="m 223.45,354.72 h 47.18 v -55.29 h -47.18 z" />
    </clipPath>
    <clipPath
       id="clipPath340"
       clipPathUnits="userSpaceOnUse">
      <path
         id="path338"
         d="m 297.63,333.83 h 56.08 V 295.5 h -56.08 z" />
    </clipPath>
    <clipPath
       id="clipPath220"
       clipPathUnits="userSpaceOnUse">
      <path
         id="path218"
         d="M 378.05,353.71 H 427.8 V 300.43 H 378.05 Z" />
    </clipPath>
    <clipPath
       id="clipPath1224"
       clipPathUnits="userSpaceOnUse">
      <path
         id="path1222"
         d="m 450.12,353.2 h 52.25 v -52.25 h -52.25 z" />
    </clipPath>
    <clipPath
       id="clipPath904"
       clipPathUnits="userSpaceOnUse">
      <path
         id="path902"
         d="m 520.935,347.63 h 55.64 v -41.12 h -55.64 z" />
    </clipPath>
    <clipPath
       id="clipPath1512"
       clipPathUnits="userSpaceOnUse">
      <path
         id="path1510"
         d="m 590.789,353.968 h 54.478 v -53.795 h -54.478 z" />
    </clipPath>
    <clipPath
       id="clipPath384"
       clipPathUnits="userSpaceOnUse">
      <path
         id="path382"
         d="M 46.97,277.28 H 104.4 V 231.61 H 46.97 Z" />
    </clipPath>
    <clipPath
       id="clipPath312"
       clipPathUnits="userSpaceOnUse">
      <path
         id="path310"
         d="m 127.4,282.06 h 68.16 V 240.85 H 127.4 Z" />
    </clipPath>
    <clipPath
       id="clipPath544"
       clipPathUnits="userSpaceOnUse">
      <path
         id="path542"
         d="m 208.18,291.795 h 77.715 V 231.114 H 208.18 Z" />
    </clipPath>
    <clipPath
       id="clipPath144"
       clipPathUnits="userSpaceOnUse">
      <path
         id="path142"
         d="m 309.62,285.63 h 32.112 V 237.28 H 309.62 Z" />
    </clipPath>
    <clipPath
       id="clipPath988"
       clipPathUnits="userSpaceOnUse">
      <path
         id="path986"
         d="m 381.1,282.73 h 43.66 V 240.17 H 381.1 Z" />
    </clipPath>
    <clipPath
       id="clipPath790"
       clipPathUnits="userSpaceOnUse">
      <path
         id="path788"
         d="m 453.3,278.98 h 46.82 V 242.6 H 453.3 Z" />
    </clipPath>
    <clipPath
       id="clipPath1144"
       clipPathUnits="userSpaceOnUse">
      <path
         id="path1142"
         d="m 523.77,273.9 h 51.05 v -26.22 h -51.05 z" />
    </clipPath>
    <clipPath
       id="clipPath1390"
       clipPathUnits="userSpaceOnUse">
      <path
         id="path1388"
         d="m 595.56,285.6 h 44.93 v -45.9 h -44.93 z" />
    </clipPath>
    <clipPath
       id="clipPath1052"
       clipPathUnits="userSpaceOnUse">
      <path
         id="path1050"
         d="M 54.2225,216.55 H 97.1436 V 173.66 H 54.2225 Z" />
    </clipPath>
    <clipPath
       id="clipPath762"
       clipPathUnits="userSpaceOnUse">
      <path
         id="path760"
         d="M 133.67,214.23 H 189.3 V 175.98 H 133.67 Z" />
    </clipPath>
    <clipPath
       id="clipPath276"
       clipPathUnits="userSpaceOnUse">
      <path
         id="path274"
         d="m 230.14,218.955 h 33.8 V 165.25 h -33.8 z" />
    </clipPath>
    <clipPath
       id="clipPath628"
       clipPathUnits="userSpaceOnUse">
      <path
         id="path626"
         d="m 297.63,227.63 h 56.09 v -71.05 h -56.09 z" />
    </clipPath>
    <clipPath
       id="clipPath420"
       clipPathUnits="userSpaceOnUse">
      <path
         id="path418"
         d="m 378.62,220.24 h 48.61 v -54.37 h -48.61 z" />
    </clipPath>
  </defs>
  <metadata
     id="metadata5085">
    <rdf:RDF>
      <cc:Work
         rdf:about="">
        <dc:format>image/svg+xml</dc:format>
        <dc:type
           rdf:resource="http://purl.org/dc/dcmitype/StillImage" />
        <dc:title></dc:title>
      </cc:Work>
    </rdf:RDF>
  </metadata>
  <g
     transform="translate(-88.560505,-85.775846)"
     id="layer1">
    <g
       id="g8523"
       transform="matrix(0.35277777,0,0,-0.35277777,-43.655366,164.82447)">
      <g
         id="g414">
        <g
           id="g416" />
        <g
           id="g480">
          <g
             clip-path="url(#clipPath420)"
             id="g478">
            <g
               transform="translate(427.2305,179.1699)"
               id="g424">
              <path
                 d="M 0,0 V -13.3 H -13.311 Z"
                 style="fill:#6c9814;fill-opacity:1;fill-rule:nonzero;stroke:none"
                 id="path422" />
            </g>
            <g
               transform="translate(427.2305,199.7197)"
               id="g428">
              <path
                 d="m 0,0 v -20.55 h -13.311 v -13.3 H -48.61 V 0 Z"
                 style="fill:#ffbb00;fill-opacity:1;fill-rule:nonzero;stroke:none"
                 id="path426" />
            </g>
            <g
               transform="translate(427.2305,214.4702)"
               id="g432">
              <path
                 d="M 0,0 V -14.75 H -48.61 V 0 h 4.519 v -3.5 c 0,-1.25 1.011,-2.26 2.261,-2.26 1.239,0 2.25,1.01 2.25,2.26 V 0 h 4.269 v -3.5 c 0,-1.25 1.021,-2.26 2.26,-2.26 1.25,0 2.261,1.01 2.261,2.26 V 0 h 4.229 v -3.5 c 0,-1.25 1.01,-2.26 2.26,-2.26 1.24,0 2.25,1.01 2.25,2.26 V 0 h 4.231 v -3.5 c 0,-1.25 1.019,-2.26 2.259,-2.26 1.25,0 2.26,1.01 2.26,2.26 V 0 h 4.271 v -3.5 c 0,-1.25 1.009,-2.26 2.259,-2.26 1.25,0 2.25,1.01 2.25,2.26 V 0 Z"
                 style="fill:#6c9814;fill-opacity:1;fill-rule:nonzero;stroke:none"
                 id="path430" />
            </g>
            <g
               transform="translate(427.2305,179.1699)"
               id="g436">
              <path
                 d="M 0,0 -13.311,-13.3 V 0 Z"
                 style="fill:#00607f;fill-opacity:1;fill-rule:nonzero;stroke:none"
                 id="path434" />
            </g>
            <g
               transform="translate(422.71,214.4702)"
               id="g440">
              <path
                 d="m 0,0 v -3.5 c 0,-1.25 -1,-2.26 -2.25,-2.26 -1.25,0 -2.26,1.01 -2.26,2.26 V 0 Z"
                 style="fill:#00607f;fill-opacity:1;fill-rule:nonzero;stroke:none"
                 id="path438" />
            </g>
            <g
               transform="translate(422.71,217.98)"
               id="g444">
              <path
                 d="M 0,0 V -3.51 H -4.51 V 0 c 0,1.25 1.01,2.26 2.26,2.26 C -1,2.26 0,1.25 0,0"
                 style="fill:#00607f;fill-opacity:1;fill-rule:nonzero;stroke:none"
                 id="path442" />
            </g>
            <g
               transform="translate(413.9297,214.4702)"
               id="g448">
              <path
                 d="m 0,0 v -3.5 c 0,-1.25 -1.01,-2.26 -2.26,-2.26 -1.24,0 -2.26,1.01 -2.26,2.26 V 0 Z"
                 style="fill:#00607f;fill-opacity:1;fill-rule:nonzero;stroke:none"
                 id="path446" />
            </g>
            <g
               transform="translate(413.9297,217.98)"
               id="g452">
              <path
                 d="M 0,0 V -3.51 H -4.52 V 0 c 0,1.25 1.02,2.26 2.26,2.26 C -1.01,2.26 0,1.25 0,0"
                 style="fill:#00607f;fill-opacity:1;fill-rule:nonzero;stroke:none"
                 id="path450" />
            </g>
            <g
               transform="translate(405.1797,214.4702)"
               id="g456">
              <path
                 d="m 0,0 v -3.5 c 0,-1.25 -1.01,-2.26 -2.25,-2.26 -1.25,0 -2.26,1.01 -2.26,2.26 V 0 Z"
                 style="fill:#00607f;fill-opacity:1;fill-rule:nonzero;stroke:none"
                 id="path454" />
            </g>
            <g
               transform="translate(405.1797,217.98)"
               id="g460">
              <path
                 d="M 0,0 V -3.51 H -4.51 V 0 c 0,1.25 1.01,2.26 2.26,2.26 C -1.01,2.26 0,1.25 0,0"
                 style="fill:#00607f;fill-opacity:1;fill-rule:nonzero;stroke:none"
                 id="path458" />
            </g>
            <g
               transform="translate(396.4404,214.4702)"
               id="g464">
              <path
                 d="m 0,0 v -3.5 c 0,-1.25 -1.011,-2.26 -2.261,-2.26 -1.239,0 -2.26,1.01 -2.26,2.26 V 0 Z"
                 style="fill:#00607f;fill-opacity:1;fill-rule:nonzero;stroke:none"
                 id="path462" />
            </g>
            <g
               transform="translate(396.4404,217.98)"
               id="g468">
              <path
                 d="M 0,0 V -3.51 H -4.521 V 0 c 0,1.25 1.021,2.26 2.26,2.26 C -1.011,2.26 0,1.25 0,0"
                 style="fill:#00607f;fill-opacity:1;fill-rule:nonzero;stroke:none"
                 id="path466" />
            </g>
            <g
               transform="translate(387.6504,214.4702)"
               id="g472">
              <path
                 d="m 0,0 v -3.5 c 0,-1.25 -1.011,-2.26 -2.25,-2.26 -1.25,0 -2.261,1.01 -2.261,2.26 V 0 Z"
                 style="fill:#00607f;fill-opacity:1;fill-rule:nonzero;stroke:none"
                 id="path470" />
            </g>
            <g
               transform="translate(387.6504,217.98)"
               id="g476">
              <path
                 d="M 0,0 V -3.51 H -4.511 V 0 c 0,1.25 1.011,2.26 2.261,2.26 C -1.011,2.26 0,1.25 0,0"
                 style="fill:#00607f;fill-opacity:1;fill-rule:nonzero;stroke:none"
                 id="path474" />
            </g>
          </g>
        </g>
      </g>
      <g
         id="g482"
         transform="translate(427.2305,199.7197)">
        <path
           d="M 0,0 V -20.55"
           style="fill:none;stroke:#141414;stroke-width:2;stroke-linecap:round;stroke-linejoin:round;stroke-miterlimit:10;stroke-dasharray:none;stroke-opacity:1"
           id="path484" />
      </g>
      <g
         id="g486"
         transform="translate(413.9199,165.8701)">
        <path
           d="M 0,0 H -35.3 V 33.85"
           style="fill:none;stroke:#141414;stroke-width:2;stroke-linecap:round;stroke-linejoin:round;stroke-miterlimit:10;stroke-dasharray:none;stroke-opacity:1"
           id="path488" />
      </g>
      <g
         id="g490"
         transform="translate(422.71,214.4702)">
        <path
           d="M 0,0 H 4.521 V -14.75 H -44.09 V 0 h 4.52"
           style="fill:none;stroke:#141414;stroke-width:2;stroke-linecap:round;stroke-linejoin:round;stroke-miterlimit:10;stroke-dasharray:none;stroke-opacity:1"
           id="path492" />
      </g>
      <g
         id="g494"
         transform="translate(413.9297,214.4702)">
        <path
           d="M 0,0 H 4.271"
           style="fill:none;stroke:#141414;stroke-width:2;stroke-linecap:round;stroke-linejoin:round;stroke-miterlimit:10;stroke-dasharray:none;stroke-opacity:1"
           id="path496" />
      </g>
      <g
         id="g498"
         transform="translate(405.1797,214.4702)">
        <path
           d="M 0,0 H 4.23"
           style="fill:none;stroke:#141414;stroke-width:2;stroke-linecap:round;stroke-linejoin:round;stroke-miterlimit:10;stroke-dasharray:none;stroke-opacity:1"
           id="path500" />
      </g>
      <g
         id="g502"
         transform="translate(396.4404,214.4702)">
        <path
           d="M 0,0 H 4.229"
           style="fill:none;stroke:#141414;stroke-width:2;stroke-linecap:round;stroke-linejoin:round;stroke-miterlimit:10;stroke-dasharray:none;stroke-opacity:1"
           id="path504" />
      </g>
      <g
         id="g506"
         transform="translate(387.6504,214.4702)">
        <path
           d="M 0,0 H 4.27"
           style="fill:none;stroke:#141414;stroke-width:2;stroke-linecap:round;stroke-linejoin:round;stroke-miterlimit:10;stroke-dasharray:none;stroke-opacity:1"
           id="path508" />
      </g>
      <g
         id="g510"
         transform="translate(427.2305,179.1699)">
        <path
           d="M 0,0 H -13.311 V -13.3"
           style="fill:none;stroke:#141414;stroke-width:2;stroke-linecap:round;stroke-linejoin:round;stroke-miterlimit:10;stroke-dasharray:none;stroke-opacity:1"
           id="path512" />
      </g>
      <g
         id="g514"
         transform="translate(427.2305,179.1699)">
        <path
           d="M 0,0 -13.311,-13.3 H 0 Z"
           style="fill:none;stroke:#141414;stroke-width:2;stroke-linecap:round;stroke-linejoin:round;stroke-miterlimit:10;stroke-dasharray:none;stroke-opacity:1"
           id="path516" />
      </g>
      <g
         id="g518"
         transform="translate(387.6504,214.4702)">
        <path
           d="M 0,0 V 3.51 C 0,4.76 -1.011,5.77 -2.25,5.77 -3.5,5.77 -4.511,4.76 -4.511,3.51 V 0 -3.5 c 0,-1.25 1.011,-2.26 2.261,-2.26 1.239,0 2.25,1.01 2.25,2.26 z"
           style="fill:none;stroke:#141414;stroke-width:2;stroke-linecap:round;stroke-linejoin:round;stroke-miterlimit:10;stroke-dasharray:none;stroke-opacity:1"
           id="path520" />
      </g>
      <g
         id="g522"
         transform="translate(422.71,214.4702)">
        <path
           d="M 0,0 V 3.51 C 0,4.76 -1,5.77 -2.25,5.77 -3.5,5.77 -4.51,4.76 -4.51,3.51 V 0 -3.5 c 0,-1.25 1.01,-2.26 2.26,-2.26 C -1,-5.76 0,-4.75 0,-3.5 Z"
           style="fill:none;stroke:#141414;stroke-width:2;stroke-linecap:round;stroke-linejoin:round;stroke-miterlimit:10;stroke-dasharray:none;stroke-opacity:1"
           id="path524" />
      </g>
      <g
         id="g526"
         transform="translate(413.9297,214.4702)">
        <path
           d="M 0,0 V 3.51 C 0,4.76 -1.01,5.77 -2.26,5.77 -3.5,5.77 -4.52,4.76 -4.52,3.51 V 0 -3.5 c 0,-1.25 1.02,-2.26 2.26,-2.26 1.25,0 2.26,1.01 2.26,2.26 z"
           style="fill:none;stroke:#141414;stroke-width:2;stroke-linecap:round;stroke-linejoin:round;stroke-miterlimit:10;stroke-dasharray:none;stroke-opacity:1"
           id="path528" />
      </g>
      <g
         id="g530"
         transform="translate(396.4404,214.4702)">
        <path
           d="m 0,0 v 3.51 c 0,1.25 -1.011,2.26 -2.261,2.26 -1.239,0 -2.26,-1.01 -2.26,-2.26 V 0 -3.5 c 0,-1.25 1.021,-2.26 2.26,-2.26 1.25,0 2.261,1.01 2.261,2.26 z"
           style="fill:none;stroke:#141414;stroke-width:2;stroke-linecap:round;stroke-linejoin:round;stroke-miterlimit:10;stroke-dasharray:none;stroke-opacity:1"
           id="path532" />
      </g>
      <g
         id="g534"
         transform="translate(405.1797,214.4702)">
        <path
           d="M 0,0 V 3.51 C 0,4.76 -1.01,5.77 -2.25,5.77 -3.5,5.77 -4.51,4.76 -4.51,3.51 V 0 -3.5 c 0,-1.25 1.01,-2.26 2.26,-2.26 1.24,0 2.25,1.01 2.25,2.26 z"
           style="fill:none;stroke:#141414;stroke-width:2;stroke-linecap:round;stroke-linejoin:round;stroke-miterlimit:10;stroke-dasharray:none;stroke-opacity:1"
           id="path536" />
      </g>
    </g>
  </g>
</svg>
